<svg width="31" height="29" viewBox="0 0 31 29" fill="none" xmlns="http://www.w3.org/2000/svg">
<path d="M15.9545 5.54545V23H13.9091L4.39773 9.29545H4.22727V23H2.11364V5.54545H4.15909L13.7045 19.2841H13.875V5.54545H15.9545Z" fill="#144050"/>
<path d="M27.0455 11C26.858 10.4261 26.6108 9.91193 26.304 9.45739C26.0028 8.99716 25.642 8.60511 25.2216 8.28125C24.8068 7.95739 24.3352 7.71023 23.8068 7.53977C23.2784 7.36932 22.6989 7.28409 22.0682 7.28409C21.0341 7.28409 20.0938 7.55114 19.2472 8.08523C18.4006 8.61932 17.7273 9.40625 17.2273 10.446C16.7273 11.4858 16.4773 12.7614 16.4773 14.2727C16.4773 15.7841 16.7301 17.0597 17.2358 18.0994C17.7415 19.1392 18.4261 19.9261 19.2898 20.4602C20.1534 20.9943 21.125 21.2614 22.2045 21.2614C23.2045 21.2614 24.0852 21.0483 24.8466 20.6222C25.6136 20.1903 26.2102 19.5824 26.6364 18.7983C27.0682 18.0085 27.2841 17.0795 27.2841 16.0114L27.9318 16.1477H22.6818V14.2727H29.3295V16.1477C29.3295 17.5852 29.0227 18.8352 28.4091 19.8977C27.8011 20.9602 26.9602 21.7841 25.8864 22.3693C24.8182 22.9489 23.5909 23.2386 22.2045 23.2386C20.6591 23.2386 19.3011 22.875 18.1307 22.1477C16.9659 21.4205 16.0568 20.3864 15.4034 19.0455C14.7557 17.7045 14.4318 16.1136 14.4318 14.2727C14.4318 12.892 14.6165 11.6506 14.9858 10.5483C15.3608 9.44034 15.8892 8.49716 16.571 7.71875C17.2528 6.94034 18.0597 6.34375 18.9915 5.92898C19.9233 5.5142 20.9489 5.30682 22.0682 5.30682C22.9886 5.30682 23.8466 5.44602 24.642 5.72443C25.4432 5.99716 26.1562 6.38636 26.7812 6.89204C27.4119 7.39204 27.9375 7.99148 28.358 8.69034C28.7784 9.38352 29.0682 10.1534 29.2273 11H27.0455Z" fill="#144050"/>
</svg>
