<svg width="34" height="31" viewBox="0 0 34 31" fill="none" xmlns="http://www.w3.org/2000/svg">
<rect width="34" height="31" rx="6" fill="#D9D9D9"/>
<mask id="path-2-outside-1_23_7" maskUnits="userSpaceOnUse" x="2" y="6" width="16" height="20" fill="black">
<rect fill="white" x="2" y="6" width="16" height="20"/>
<path d="M16.9545 7.54545V25H14.9091L5.39773 11.2955H5.22727V25H3.11364V7.54545H5.15909L14.7045 21.2841H14.875V7.54545H16.9545Z"/>
</mask>
<path d="M16.9545 7.54545V25H14.9091L5.39773 11.2955H5.22727V25H3.11364V7.54545H5.15909L14.7045 21.2841H14.875V7.54545H16.9545Z" fill="#144050"/>
<path d="M16.9545 7.54545H17.9545V6.54545H16.9545V7.54545ZM16.9545 25V26H17.9545V25H16.9545ZM14.9091 25L14.0876 25.5702L14.3859 26H14.9091V25ZM5.39773 11.2955L6.21926 10.7253L5.92094 10.2955H5.39773V11.2955ZM5.22727 11.2955V10.2955H4.22727V11.2955H5.22727ZM5.22727 25V26H6.22727V25H5.22727ZM3.11364 25H2.11364V26H3.11364V25ZM3.11364 7.54545V6.54545H2.11364V7.54545H3.11364ZM5.15909 7.54545L5.98033 6.97487L5.68198 6.54545H5.15909V7.54545ZM14.7045 21.2841L13.8833 21.8547L14.1817 22.2841H14.7045V21.2841ZM14.875 21.2841V22.2841H15.875V21.2841H14.875ZM14.875 7.54545V6.54545H13.875V7.54545H14.875ZM16.9545 7.54545H15.9545V25H16.9545H17.9545V7.54545H16.9545ZM16.9545 25V24H14.9091V25V26H16.9545V25ZM14.9091 25L15.7306 24.4298L6.21926 10.7253L5.39773 11.2955L4.5762 11.8656L14.0876 25.5702L14.9091 25ZM5.39773 11.2955V10.2955H5.22727V11.2955V12.2955H5.39773V11.2955ZM5.22727 11.2955H4.22727V25H5.22727H6.22727V11.2955H5.22727ZM5.22727 25V24H3.11364V25V26H5.22727V25ZM3.11364 25H4.11364V7.54545H3.11364H2.11364V25H3.11364ZM3.11364 7.54545V8.54545H5.15909V7.54545V6.54545H3.11364V7.54545ZM5.15909 7.54545L4.33785 8.11604L13.8833 21.8547L14.7045 21.2841L15.5258 20.7135L5.98033 6.97487L5.15909 7.54545ZM14.7045 21.2841V22.2841H14.875V21.2841V20.2841H14.7045V21.2841ZM14.875 21.2841H15.875V7.54545H14.875H13.875V21.2841H14.875ZM14.875 7.54545V8.54545H16.9545V7.54545V6.54545H14.875V7.54545Z" fill="#144050" mask="url(#path-2-outside-1_23_7)"/>
<mask id="path-4-outside-2_23_7" maskUnits="userSpaceOnUse" x="14" y="6" width="18" height="21" fill="black">
<rect fill="white" x="14" y="6" width="18" height="21"/>
<path d="M28.0455 13C27.858 12.4261 27.6108 11.9119 27.304 11.4574C27.0028 10.9972 26.642 10.6051 26.2216 10.2812C25.8068 9.95739 25.3352 9.71023 24.8068 9.53977C24.2784 9.36932 23.6989 9.28409 23.0682 9.28409C22.0341 9.28409 21.0938 9.55114 20.2472 10.0852C19.4006 10.6193 18.7273 11.4062 18.2273 12.446C17.7273 13.4858 17.4773 14.7614 17.4773 16.2727C17.4773 17.7841 17.7301 19.0597 18.2358 20.0994C18.7415 21.1392 19.4261 21.9261 20.2898 22.4602C21.1534 22.9943 22.125 23.2614 23.2045 23.2614C24.2045 23.2614 25.0852 23.0483 25.8466 22.6222C26.6136 22.1903 27.2102 21.5824 27.6364 20.7983C28.0682 20.0085 28.2841 19.0795 28.2841 18.0114L28.9318 18.1477H23.6818V16.2727H30.3295V18.1477C30.3295 19.5852 30.0227 20.8352 29.4091 21.8977C28.8011 22.9602 27.9602 23.7841 26.8864 24.3693C25.8182 24.9489 24.5909 25.2386 23.2045 25.2386C21.6591 25.2386 20.3011 24.875 19.1307 24.1477C17.9659 23.4205 17.0568 22.3864 16.4034 21.0455C15.7557 19.7045 15.4318 18.1136 15.4318 16.2727C15.4318 14.892 15.6165 13.6506 15.9858 12.5483C16.3608 11.4403 16.8892 10.4972 17.571 9.71875C18.2528 8.94034 19.0597 8.34375 19.9915 7.92898C20.9233 7.5142 21.9489 7.30682 23.0682 7.30682C23.9886 7.30682 24.8466 7.44602 25.642 7.72443C26.4432 7.99716 27.1562 8.38636 27.7812 8.89204C28.4119 9.39204 28.9375 9.99148 29.358 10.6903C29.7784 11.3835 30.0682 12.1534 30.2273 13H28.0455Z"/>
</mask>
<path d="M28.0455 13C27.858 12.4261 27.6108 11.9119 27.304 11.4574C27.0028 10.9972 26.642 10.6051 26.2216 10.2812C25.8068 9.95739 25.3352 9.71023 24.8068 9.53977C24.2784 9.36932 23.6989 9.28409 23.0682 9.28409C22.0341 9.28409 21.0938 9.55114 20.2472 10.0852C19.4006 10.6193 18.7273 11.4062 18.2273 12.446C17.7273 13.4858 17.4773 14.7614 17.4773 16.2727C17.4773 17.7841 17.7301 19.0597 18.2358 20.0994C18.7415 21.1392 19.4261 21.9261 20.2898 22.4602C21.1534 22.9943 22.125 23.2614 23.2045 23.2614C24.2045 23.2614 25.0852 23.0483 25.8466 22.6222C26.6136 22.1903 27.2102 21.5824 27.6364 20.7983C28.0682 20.0085 28.2841 19.0795 28.2841 18.0114L28.9318 18.1477H23.6818V16.2727H30.3295V18.1477C30.3295 19.5852 30.0227 20.8352 29.4091 21.8977C28.8011 22.9602 27.9602 23.7841 26.8864 24.3693C25.8182 24.9489 24.5909 25.2386 23.2045 25.2386C21.6591 25.2386 20.3011 24.875 19.1307 24.1477C17.9659 23.4205 17.0568 22.3864 16.4034 21.0455C15.7557 19.7045 15.4318 18.1136 15.4318 16.2727C15.4318 14.892 15.6165 13.6506 15.9858 12.5483C16.3608 11.4403 16.8892 10.4972 17.571 9.71875C18.2528 8.94034 19.0597 8.34375 19.9915 7.92898C20.9233 7.5142 21.9489 7.30682 23.0682 7.30682C23.9886 7.30682 24.8466 7.44602 25.642 7.72443C26.4432 7.99716 27.1562 8.38636 27.7812 8.89204C28.4119 9.39204 28.9375 9.99148 29.358 10.6903C29.7784 11.3835 30.0682 12.1534 30.2273 13H28.0455Z" fill="#144050"/>
<path d="M28.0455 13L27.0949 13.3106L27.3202 14H28.0455V13ZM27.304 11.4574L26.4672 12.0049L26.4711 12.0109L26.4751 12.0169L27.304 11.4574ZM26.2216 10.2812L25.6061 11.0695L25.6114 11.0735L26.2216 10.2812ZM24.8068 9.53977L25.1138 8.58806H25.1138L24.8068 9.53977ZM18.2273 12.446L19.1285 12.8794V12.8794L18.2273 12.446ZM18.2358 20.0994L17.3365 20.5368V20.5368L18.2358 20.0994ZM25.8466 22.6222L26.335 23.4948L26.3372 23.4936L25.8466 22.6222ZM27.6364 20.7983L26.7589 20.3186L26.7577 20.3208L27.6364 20.7983ZM28.2841 18.0114L28.4901 17.0328L27.2841 16.7789V18.0114H28.2841ZM28.9318 18.1477V19.1477L29.1378 17.1692L28.9318 18.1477ZM23.6818 18.1477H22.6818V19.1477H23.6818V18.1477ZM23.6818 16.2727V15.2727H22.6818V16.2727H23.6818ZM30.3295 16.2727H31.3295V15.2727H30.3295V16.2727ZM29.4091 21.8977L28.5431 21.3976L28.5411 21.4011L29.4091 21.8977ZM26.8864 24.3693L27.3632 25.2483L27.3649 25.2474L26.8864 24.3693ZM19.1307 24.1477L18.6011 24.996L18.6029 24.9971L19.1307 24.1477ZM16.4034 21.0455L15.503 21.4804L15.5045 21.4835L16.4034 21.0455ZM15.9858 12.5483L15.0386 12.2277L15.0376 12.2306L15.9858 12.5483ZM17.571 9.71875L18.3233 10.3776V10.3776L17.571 9.71875ZM25.642 7.72443L25.3117 8.66832L25.3198 8.67108L25.642 7.72443ZM27.7812 8.89204L27.1522 9.66949L27.16 9.67566L27.7812 8.89204ZM29.358 10.6903L28.5011 11.2059L28.5029 11.209L29.358 10.6903ZM30.2273 13V14H31.4327L31.2101 12.8153L30.2273 13ZM28.0455 13L28.996 12.6894C28.7826 12.0361 28.4965 11.4367 28.1328 10.8979L27.304 11.4574L26.4751 12.0169C26.7251 12.3872 26.9334 12.8161 27.0949 13.3106L28.0455 13ZM27.304 11.4574L28.1408 10.9099C27.7806 10.3594 27.3442 9.88366 26.8318 9.48902L26.2216 10.2812L25.6114 11.0735C25.9399 11.3266 26.2251 11.6349 26.4672 12.0049L27.304 11.4574ZM26.2216 10.2812L26.837 9.49306C26.3248 9.09312 25.7476 8.79252 25.1138 8.58806L24.8068 9.53977L24.4998 10.4915C24.9228 10.6279 25.2888 10.8216 25.6062 11.0694L26.2216 10.2812ZM24.8068 9.53977L25.1138 8.58806C24.4738 8.3816 23.7892 8.28409 23.0682 8.28409V9.28409V10.2841C23.6086 10.2841 24.083 10.357 24.4998 10.4915L24.8068 9.53977ZM23.0682 9.28409V8.28409C21.8518 8.28409 20.7254 8.60116 19.7136 9.23947L20.2472 10.0852L20.7807 10.931C21.4621 10.5011 22.2164 10.2841 23.0682 10.2841V9.28409ZM20.2472 10.0852L19.7136 9.23947C18.6851 9.88832 17.8948 10.83 17.3261 12.0127L18.2273 12.446L19.1285 12.8794C19.5598 11.9825 20.116 11.3503 20.7807 10.931L20.2472 10.0852ZM18.2273 12.446L17.3261 12.0127C16.7441 13.2228 16.4773 14.6559 16.4773 16.2727H17.4773H18.4773C18.4773 14.8668 18.7104 13.7488 19.1285 12.8794L18.2273 12.446ZM17.4773 16.2727H16.4773C16.4773 17.8909 16.7474 19.3256 17.3365 20.5368L18.2358 20.0994L19.1351 19.6621C18.7128 18.7938 18.4773 17.6773 18.4773 16.2727H17.4773ZM18.2358 20.0994L17.3365 20.5368C17.9132 21.7226 18.7177 22.6638 19.7638 23.3107L20.2898 22.4602L20.8157 21.6097C20.1346 21.1885 19.5697 20.5558 19.1351 19.6621L18.2358 20.0994ZM20.2898 22.4602L19.7638 23.3107C20.7956 23.9488 21.9514 24.2614 23.2045 24.2614V23.2614V22.2614C22.2986 22.2614 21.5113 22.0398 20.8157 21.6097L20.2898 22.4602ZM23.2045 23.2614V24.2614C24.3503 24.2614 25.4038 24.016 26.335 23.4948L25.8466 22.6222L25.3582 21.7495C24.7667 22.0806 24.0588 22.2614 23.2045 22.2614V23.2614ZM25.8466 22.6222L26.3372 23.4936C27.2704 22.9682 28.0004 22.2226 28.515 21.2758L27.6364 20.7983L26.7577 20.3208C26.4201 20.9421 25.9569 21.4125 25.356 21.7508L25.8466 22.6222ZM27.6364 20.7983L28.5138 21.278C29.0398 20.3159 29.2841 19.2159 29.2841 18.0114H28.2841H27.2841C27.2841 18.9432 27.0966 19.7011 26.759 20.3186L27.6364 20.7983ZM28.2841 18.0114L28.0781 18.9899L28.7258 19.1263L28.9318 18.1477L29.1378 17.1692L28.4901 17.0328L28.2841 18.0114ZM28.9318 18.1477V17.1477H23.6818V18.1477V19.1477H28.9318V18.1477ZM23.6818 18.1477H24.6818V16.2727H23.6818H22.6818V18.1477H23.6818ZM23.6818 16.2727V17.2727H30.3295V16.2727V15.2727H23.6818V16.2727ZM30.3295 16.2727H29.3295V18.1477H30.3295H31.3295V16.2727H30.3295ZM30.3295 18.1477H29.3295C29.3295 19.44 29.0549 20.5115 28.5431 21.3976L29.4091 21.8977L30.275 22.3979C30.9905 21.159 31.3295 19.7304 31.3295 18.1477H30.3295ZM29.4091 21.8977L28.5411 21.4011C28.0251 22.303 27.3189 22.9947 26.4078 23.4912L26.8864 24.3693L27.3649 25.2474C28.6015 24.5734 29.5772 23.6175 30.2771 22.3944L29.4091 21.8977ZM26.8864 24.3693L26.4095 23.4904C25.5072 23.9799 24.4481 24.2386 23.2045 24.2386V25.2386V26.2386C24.7338 26.2386 26.1292 25.9178 27.3632 25.2483L26.8864 24.3693ZM23.2045 25.2386V24.2386C21.8223 24.2386 20.6518 23.9156 19.6585 23.2983L19.1307 24.1477L18.6029 24.9971C19.9505 25.8344 21.4959 26.2386 23.2045 26.2386V25.2386ZM19.1307 24.1477L19.6603 23.2995C18.6684 22.6801 17.8809 21.7948 17.3024 20.6074L16.4034 21.0455L15.5045 21.4835C16.2327 22.978 17.2635 24.1608 18.6011 24.996L19.1307 24.1477ZM16.4034 21.0455L17.3039 20.6105C16.7353 19.4334 16.4318 17.9978 16.4318 16.2727H15.4318H14.4318C14.4318 18.2295 14.7761 19.9757 15.503 21.4804L16.4034 21.0455ZM15.4318 16.2727H16.4318C16.4318 14.9803 16.6047 13.8487 16.934 12.866L15.9858 12.5483L15.0376 12.2306C14.6282 13.4524 14.4318 14.8038 14.4318 16.2727H15.4318ZM15.9858 12.5483L16.933 12.8689C17.2714 11.8693 17.7386 11.0451 18.3233 10.3776L17.571 9.71875L16.8188 9.05986C16.0398 9.9492 15.4502 11.0114 15.0386 12.2277L15.9858 12.5483ZM17.571 9.71875L18.3233 10.3776C18.9111 9.70651 19.6006 9.19758 20.3981 8.84256L19.9915 7.92898L19.5848 7.0154C18.5188 7.48992 17.5946 8.17417 16.8188 9.05986L17.571 9.71875ZM19.9915 7.92898L20.3981 8.84256C21.1899 8.4901 22.0752 8.30682 23.0682 8.30682V7.30682V6.30682C21.8225 6.30682 20.6566 6.5383 19.5848 7.0154L19.9915 7.92898ZM23.0682 7.30682V8.30682C23.8865 8.30682 24.6318 8.43031 25.3117 8.66829L25.642 7.72443L25.9724 6.78057C25.0614 6.46173 24.0908 6.30682 23.0682 6.30682V7.30682ZM25.642 7.72443L25.3198 8.67108C26.0154 8.9079 26.6235 9.24163 27.1523 9.66945L27.7812 8.89204L28.4102 8.11464C27.689 7.53109 26.8709 7.08642 25.9643 6.77778L25.642 7.72443ZM27.7812 8.89204L27.16 9.67566C27.6954 10.1001 28.1416 10.6084 28.5011 11.2059L29.358 10.6903L30.2148 10.1748C29.7334 9.37459 29.1284 8.68395 28.4025 8.10843L27.7812 8.89204ZM29.358 10.6903L28.5029 11.209C28.8573 11.7931 29.1062 12.4487 29.2445 13.1847L30.2273 13L31.2101 12.8153C31.0302 11.8581 30.6995 10.9739 30.213 10.1717L29.358 10.6903ZM30.2273 13V12H28.0455V13V14H30.2273V13Z" fill="#144050" mask="url(#path-4-outside-2_23_7)"/>
</svg>
